<svg width="33" height="32" viewBox="0 0 33 32" fill="none" xmlns="http://www.w3.org/2000/svg">
<path fill-rule="evenodd" clip-rule="evenodd" d="M29.1765 11.767C29.9063 12.4744 31.0853 12.4744 31.7702 11.767C32.5 11.0597 32.5 9.99299 31.7702 9.28562C31.074 8.57826 29.9063 8.57826 29.1765 9.28562C28.4804 9.99299 28.4804 11.0597 29.1765 11.767ZM21.4965 4.34527C22.2263 5.05264 23.4053 5.05264 24.0902 4.34527C24.82 3.6379 24.82 2.57124 24.0902 1.86387C23.394 1.1565 22.2263 1.1565 21.4965 1.86387C20.8116 2.57124 20.8116 3.62668 21.4965 4.34527ZM23.1919 17.5607C23.9218 18.2681 25.1007 18.2681 25.7856 17.5607C26.5154 16.8533 26.5154 15.7867 25.7856 15.0793C25.0895 14.3719 23.9218 14.3719 23.1919 15.0793C22.4958 15.7867 22.4958 16.8533 23.1919 17.5607ZM7.92175 20.8056L7.59614 22.1081C7.47263 22.6021 6.9786 22.9277 6.46211 22.8154C6.13649 22.7481 5.81088 22.7144 5.51895 22.7144C3.99193 22.7144 2.90281 23.7474 2.90281 25.5776V31.4386H0.5V20.7832H2.88035V21.9846C3.61018 20.9628 4.73298 20.5025 6.06912 20.5025C6.79895 20.5137 7.37158 20.6035 7.92175 20.8056ZM14.6586 22.9053V31.4498H12.2446V22.9053H10.5828C10.0888 22.9053 9.68456 22.5123 9.68456 22.0407V20.7944H12.2446V18.3018C12.2446 16.1684 13.3561 14.4618 15.9274 14.4618C17.2298 14.4618 18.1618 14.7874 18.9926 15.259L18.4986 17.2126C17.9372 16.8983 16.8256 16.64 16.0846 16.64C15.1526 16.64 14.6474 17.2239 14.6474 18.2905V20.7832H18.4088V22.894H14.6586V22.9053Z" fill="#ED1A5D"/>
</svg>
